<?xml version="1.0" encoding="utf-8"?>
<!-- Generator: Adobe Illustrator 26.0.3, SVG Export Plug-In . SVG Version: 6.00 Build 0)  -->
<svg version="1.1" id="Isolation_Mode" xmlns="http://www.w3.org/2000/svg" xmlns:xlink="http://www.w3.org/1999/xlink"
	x="0px" y="0px" viewBox="0 0 59.3 99.4" style="enable-background:new 0 0 59.3 99.4;" xml:space="preserve">
	<style type="text/css">
		.st0 {
			fill: none;
			stroke: rgb(252, 207, 8);
			stroke-width: 3;
			stroke-miterlimit: 10;
		}
	</style>
	<g>
		<path class="st0" d="M20.7,35.8c9.7,0,17.6,7.9,17.6,17.6S30.5,71,20.7,71c-5.2,0-9.9-2.3-13.1-5.9" />
		<path class="st0" d="M20.7,31.2c12.2,0,22.2,9.9,22.2,22.2S33,75.6,20.7,75.6c-6.5,0-12.3-2.8-16.4-7.2" />
		<g>
			<path class="st0" d="M1.1,71.5C6,76.8,13,80.1,20.7,80.1c14.8,0,26.7-12,26.7-26.7c0-14.8-12-26.7-26.7-26.7" />
		</g>
	</g>
	<polyline class="st0" points="19.3,37.3 19.3,12.1 47.5,12.1 " />
	<polyline class="st0" points="14.7,37.3 14.7,6.8 47.5,6.8 " />
	<polyline class="st0" points="10.1,37.3 10.1,1.5 47.5,1.5 " />
</svg>