<?xml version="1.0" encoding="utf-8"?>
<!-- Generator: Adobe Illustrator 26.0.3, SVG Export Plug-In . SVG Version: 6.00 Build 0)  -->
<svg version="1.1" id="outlines" xmlns="http://www.w3.org/2000/svg" xmlns:xlink="http://www.w3.org/1999/xlink" x="0px"
	y="0px" viewBox="0 0 548.8 876.8" style="enable-background:new 0 0 548.8 876.8;" xml:space="preserve">
	<style type="text/css">
		.st0 {
			fill: rgb(250, 223, 89);
		}
	</style>
	<g>
		<path class="st0" d="M286,710.2c-85.9,0-155.7-69.8-155.7-155.7V305.4c0-85.9,69.8-155.7,155.7-155.7s155.7,69.8,155.7,155.7v249.1
		C441.7,640.3,371.9,710.2,286,710.2z M286,176.2c-71.3,0-129.3,58-129.3,129.3v249.1c0,71.3,58,129.3,129.3,129.3
		s129.3-58,129.3-129.3V305.4C415.3,234.1,357.3,176.2,286,176.2z" />
		<path class="st0" d="M286,750.6c-108.1,0-196.1-88-196.1-196.1V305.4c0-108.1,88-196.1,196.1-196.1s196.1,88,196.1,196.1v249.1
		C482.1,662.6,394.1,750.6,286,750.6z M286,135.8c-93.5,0-169.6,76.1-169.6,169.6v249.1c0,93.5,76.1,169.6,169.6,169.6
		c93.5,0,169.6-76.1,169.6-169.6V305.4C455.6,211.9,379.5,135.8,286,135.8z" />
		<path class="st0" d="M286,790.9c-63.2,0-122.5-24.6-167.2-69.3c-44.7-44.7-69.3-104-69.3-167.2V305.4c0-63.2,24.6-122.5,69.3-167.2
		c44.7-44.7,104-69.3,167.2-69.3c63.2,0,122.5,24.6,167.2,69.3c44.7,44.7,69.3,104,69.3,167.2v249.1c0,63.2-24.6,122.5-69.3,167.2
		C408.6,766.3,349.2,790.9,286,790.9z M286,95.4c-115.8,0-210,94.2-210,210v249.1c0,115.8,94.2,210,210,210h0
		c115.8,0,210-94.2,210-210V305.4C496,189.6,401.8,95.4,286,95.4z" />
	</g>
</svg>